HIERARCHY
ROOT mixamorig:Hips
{
  OFFSET 0.000000 0.000000 0.000000
  CHANNELS 6 Xposition Yposition Zposition Xrotation Yrotation Zrotation
  JOINT mixamorig:Spine
  {
    OFFSET 0.785918 22.667751 -11.192521
    CHANNELS 3 Xrotation Yrotation Zrotation
    JOINT mixamorig:Spine2
    {
      OFFSET 0.785918 22.667751 -11.192521
      CHANNELS 3 Xrotation Yrotation Zrotation
      JOINT mixamorig:Neck
      {
        OFFSET 0.000000 4.280912 0.000000
        CHANNELS 3 Xrotation Yrotation Zrotation
        JOINT mixamorig:Head
        {
          OFFSET 0.000000 4.254871 0.000000
          CHANNELS 3 Xrotation Yrotation Zrotation
          End Site
          {
            OFFSET 0.000000 1.276461 0.000000
          }
        }
      }
      JOINT mixamorig:LeftShoulder
      {
        OFFSET 16.621605 2.780659 -2.297863
        CHANNELS 3 Xrotation Yrotation Zrotation
        JOINT mixamorig:LeftArm
        {
          OFFSET 7.570161 -18.010043 0.790673
          CHANNELS 3 Xrotation Yrotation Zrotation
          JOINT mixamorig:LeftForeArm
          {
            OFFSET 4.258502 -21.330331 -3.694189
            CHANNELS 3 Xrotation Yrotation Zrotation
            JOINT mixamorig:LeftHand
            {
              OFFSET -1.020528 -3.245478 -1.657259
              CHANNELS 3 Xrotation Yrotation Zrotation
              End Site
              {
                OFFSET -0.306158 -0.973643 -0.497178
              }
            }
          }
        }
      }
      JOINT mixamorig:RightShoulder
      {
        OFFSET -16.621605 2.780659 2.297863
        CHANNELS 3 Xrotation Yrotation Zrotation
        JOINT mixamorig:RightArm
        {
          OFFSET -7.047239 -26.880381 -0.525442
          CHANNELS 3 Xrotation Yrotation Zrotation
          JOINT mixamorig:RightForeArm
          {
            OFFSET -7.219958 -17.761464 -6.028907
            CHANNELS 3 Xrotation Yrotation Zrotation
            JOINT mixamorig:RightHand
            {
              OFFSET 1.362391 -2.129385 -3.788414
              CHANNELS 3 Xrotation Yrotation Zrotation
              End Site
              {
                OFFSET 0.408717 -0.638815 -1.136524
              }
            }
          }
        }
      }
    }
  }
  JOINT mixamorig:LeftUpLeg
  {
    OFFSET 10.014631 -0.404759 2.482655
    CHANNELS 3 Xrotation Yrotation Zrotation
    JOINT mixamorig:LeftLeg
    {
      OFFSET 2.113296 -38.097659 -0.269871
      CHANNELS 3 Xrotation Yrotation Zrotation
      JOINT mixamorig:LeftFoot
      {
        OFFSET -0.573928 -31.710121 21.169490
        CHANNELS 3 Xrotation Yrotation Zrotation
        JOINT mixamorig:LeftToeBase
        {
          OFFSET -0.179441 -4.917473 -4.664447
          CHANNELS 3 Xrotation Yrotation Zrotation
          End Site
          {
            OFFSET -0.053832 -1.475242 -1.399334
          }
        }
      }
    }
  }
  JOINT mixamorig:RightUpLeg
  {
    OFFSET -10.014631 0.404759 -2.482655
    CHANNELS 3 Xrotation Yrotation Zrotation
    JOINT mixamorig:RightLeg
    {
      OFFSET 1.865041 -30.879068 8.259322
      CHANNELS 3 Xrotation Yrotation Zrotation
      JOINT mixamorig:RightFoot
      {
        OFFSET -5.726950 -38.744381 19.123190
        CHANNELS 3 Xrotation Yrotation Zrotation
        JOINT mixamorig:RightToeBase
        {
          OFFSET -3.558205 -3.026307 -8.262988
          CHANNELS 3 Xrotation Yrotation Zrotation
          End Site
          {
            OFFSET -1.067462 -0.907892 -2.478896
          }
        }
      }
    }
  }
}
MOTION
Frames: 10
Frame Time: 0.083333
0.095212 0.188964 0.106194 -2.246541 -1.534075 -3.113335 0.000000 0.000000 0.000000 -26.174810 6.265961 6.803394 36.542423 -2.772074 -4.457684 36.539097 -0.664204 -6.982129 29.372524 -4.957015 58.907163 -15.519762 -3.443150 25.295579 -82.304530 -9.348741 78.302362 0.000000 0.000000 0.000000 36.908303 -5.029721 -42.493914 -11.694230 21.044082 -21.374463 14.824934 57.542515 115.432838 0.000000 0.000000 0.000000 5.503052 2.142422 -0.598325 1.514504 -2.063508 0.669562 -0.588328 6.558762 -1.881356 0.000000 0.000000 0.000000 12.901670 1.905673 -2.729579 -3.159504 -3.950364 -1.560555 -3.155637 6.543224 4.133858 0.000000 0.000000 0.000000
0.095531 0.188646 0.106605 -1.939347 -1.546606 -3.137334 0.000000 0.000000 0.000000 -26.169085 6.454244 6.883483 32.850558 -2.641218 -4.913865 32.895934 -0.790135 -7.149103 29.191098 -5.251592 54.990372 -14.886622 -3.235677 26.343965 -80.505154 -10.361366 62.436756 0.000000 0.000000 0.000000 35.885368 -5.562525 -39.800418 -9.831460 20.896574 -21.919755 14.199554 57.351840 113.342331 0.000000 0.000000 0.000000 6.616415 2.316374 -0.169622 0.809473 -2.309088 0.043544 -0.544984 6.124327 -1.157511 0.000000 0.000000 0.000000 16.002343 2.437304 -2.800352 -5.994120 -4.663917 -1.747732 -3.417782 5.710397 4.473294 0.000000 0.000000 0.000000
0.095973 0.188148 0.107118 -1.587612 -1.570214 -3.182798 0.000000 0.000000 0.000000 -26.168336 6.518931 6.916841 16.924107 -2.530913 -6.914319 17.169107 -1.966874 -8.208396 29.212698 -5.408304 49.727997 -14.260484 -3.651663 28.388075 -79.022760 -12.375779 32.821102 0.000000 0.000000 0.000000 34.349349 -6.017420 -36.739319 -7.639513 20.709979 -22.655723 12.158798 57.639195 112.300449 0.000000 0.000000 0.000000 7.855250 2.524920 0.147472 -0.287532 -2.417877 -0.181710 -0.453945 5.334824 -0.538580 0.000000 0.000000 0.000000 17.767116 2.789537 -2.746449 -8.399299 -5.127344 -1.976505 -3.342632 4.780953 4.997063 0.000000 0.000000 0.000000
0.096727 0.187058 0.108421 -1.255013 -1.553607 -3.149547 0.000000 0.000000 0.000000 -26.169682 6.375616 6.762175 -9.178782 -2.205572 -10.258606 -8.621393 -3.823902 -10.016836 30.058494 -5.308304 44.575137 -13.516184 -5.054583 29.054215 -76.233160 -17.523538 18.590047 0.000000 0.000000 0.000000 33.496161 -6.189902 -32.904490 -5.356567 20.310011 -23.856225 9.559055 56.895899 110.458494 0.000000 0.000000 0.000000 7.701326 2.505206 0.184360 -1.115068 -2.440337 -0.202662 -0.677999 4.097241 0.564614 0.000000 0.000000 0.000000 17.363081 2.749524 -2.654664 -8.924383 -5.120808 -2.094664 -3.211752 3.406867 5.693779 0.000000 0.000000 0.000000
0.098069 0.185605 0.110478 -0.588323 -1.518196 -3.078587 0.000000 0.000000 0.000000 -26.167081 6.249353 6.529006 -9.472643 -1.907547 -10.659977 -8.942222 -3.643667 -10.470866 30.347283 -5.155056 38.679560 -11.755144 -7.106655 28.050844 -70.510300 -24.275379 -36.074731 0.000000 0.000000 0.000000 32.340969 -6.292188 -29.434161 -3.260691 19.575022 -24.419066 6.707900 55.634893 107.221717 0.000000 0.000000 0.000000 7.631291 2.489427 0.312472 -3.312521 -2.434653 -0.192026 0.063260 1.656666 2.613437 0.000000 0.000000 0.000000 17.116401 2.763520 -2.363517 -10.271419 -5.158220 -2.410352 -2.111004 1.915530 6.063231 0.000000 0.000000 0.000000
0.099890 0.184431 0.112509 0.112654 -1.518196 -3.076545 0.000000 0.000000 0.000000 -26.161556 6.342048 6.473658 -9.835327 -1.992326 -11.155454 -9.247314 -3.877097 -10.954796 29.555295 -5.172799 32.738223 -9.215662 -8.455327 26.407793 -62.315051 -28.376137 9.517561 0.000000 0.000000 0.000000 31.059273 -6.597059 -26.182874 -1.277314 18.260700 -23.790737 2.721966 53.699194 101.155964 0.000000 0.000000 0.000000 6.309506 2.358194 0.617983 -5.825450 -2.210667 -0.027878 1.414727 0.427810 3.216263 0.000000 0.000000 0.000000 17.343095 2.942793 -1.719742 -12.410191 -5.288321 -3.117438 -0.469182 0.708593 6.236285 0.000000 0.000000 0.000000
0.102264 0.183410 0.114435 0.959339 -1.502705 -3.042037 0.000000 0.000000 0.000000 -26.147727 6.632504 6.454007 -10.280567 -2.065296 -11.852918 -9.620922 -4.152389 -11.645988 30.099940 -5.246298 27.380349 -7.721332 -8.377845 21.762946 -48.332710 -33.636068 7.755657 0.000000 0.000000 0.000000 30.360194 -7.128086 -22.064139 0.282194 15.862138 -22.080066 -1.746838 48.044516 85.399310 0.000000 0.000000 0.000000 1.290161 1.759567 0.956067 -3.393090 -1.527766 0.219580 0.975344 0.635745 2.452136 0.000000 0.000000 0.000000 15.848343 2.839572 -1.258324 -11.816967 -5.138009 -3.518374 -0.598254 0.566116 6.355512 0.000000 0.000000 0.000000
0.104305 0.182136 0.116262 1.751005 -1.474321 -2.979978 0.000000 0.000000 0.000000 -26.140809 6.672346 6.296584 -10.664569 -1.955222 -12.056325 -10.006817 -4.157162 -11.873467 28.191992 -5.457842 21.851143 -7.235289 -6.499534 18.101660 -33.086325 -29.091058 19.260024 0.000000 0.000000 0.000000 28.898131 -7.374431 -17.740743 1.441989 12.887206 -19.236199 -2.006339 40.109884 58.600376 0.000000 0.000000 0.000000 0.473666 1.675433 1.323131 -2.770711 -1.268546 0.113168 0.514402 1.715651 0.761783 0.000000 0.000000 0.000000 14.244643 2.647153 -1.260746 -11.642279 -4.884806 -3.220908 -0.616412 1.263044 6.047517 0.000000 0.000000 0.000000
0.105218 0.180683 0.118045 2.331654 -1.450298 -2.926232 0.000000 0.000000 0.000000 -26.146968 6.342000 6.014481 -10.936996 -2.033512 -11.805762 -10.273829 -4.248719 -11.604385 25.139216 -5.671432 17.657865 -7.463443 -3.937096 12.235527 -17.583243 -16.093992 27.529395 0.000000 0.000000 0.000000 27.938481 -7.267140 -12.591663 1.191436 9.618889 -17.025530 -5.409056 32.025417 34.017513 0.000000 0.000000 0.000000 -0.880118 1.517077 1.904305 -2.366826 -0.757171 0.114692 -0.367651 2.950294 -1.645489 0.000000 0.000000 0.000000 11.445985 2.247217 -1.456639 -10.958548 -4.314569 -2.447214 -0.375399 2.444882 5.556968 0.000000 0.000000 0.000000
0.105150 0.179042 0.119153 1.989327 -1.370113 -2.758408 -0.000000 0.000000 0.000000 -26.137831 6.426018 5.911988 -10.797105 -2.418516 -11.595712 -10.065701 -4.564824 -11.312918 25.676209 -5.909809 11.521385 -7.671438 -3.119973 8.807200 -8.905666 -8.590407 18.571213 0.000000 0.000000 0.000000 28.077346 -7.646396 -7.479077 1.854010 7.674832 -16.496249 -4.888965 25.572969 21.473517 0.000000 0.000000 0.000000 -1.836972 1.295490 2.219865 -1.952177 -0.285501 0.162302 -1.919056 5.143599 -4.939841 0.000000 0.000000 0.000000 8.135842 1.606784 -1.732382 -8.064770 -3.571768 -1.769572 -0.535559 3.329000 5.219360 0.000000 0.000000 0.000000
